<?xml version="1.0" encoding="utf-8"?>
<!-- Generator: Adobe Illustrator 18.1.1, SVG Export Plug-In . SVG Version: 6.00 Build 0)  -->
<!DOCTYPE svg PUBLIC "-//W3C//DTD SVG 1.1//EN" "http://www.w3.org/Graphics/SVG/1.1/DTD/svg11.dtd">
<svg version="1.1" id="Laag_1" xmlns="http://www.w3.org/2000/svg" xmlns:xlink="http://www.w3.org/1999/xlink" x="0px" y="0px"
	 viewBox="142.5 6.4 132.4 262.4" enable-background="new 142.5 6.4 132.4 262.4" xml:space="preserve">
<path fill="#FFFFFF" stroke="#FFFFFF" stroke-width="3.6832" stroke-miterlimit="10" d="M252.6,266.9h-87.8
	c-11.3,0-20.4-9.1-20.4-20.4V28.7c0-11.3,9.1-20.4,20.4-20.4h87.8c11.3-0.4,20.4,9.1,20.4,20.4v217.8
	C273,257.4,263.9,266.9,252.6,266.9z"/>
<path fill="#E52838" d="M261.3,216.5H156.1c-3.5,0-6.5-3-6.5-6.5V51.3c0-3.5,3-6.5,6.5-6.5h105.2c3.5,0,6.5,3,6.5,6.5V210
	C267.8,213.5,264.8,216.5,261.3,216.5z"/>
<circle fill="#E52838" cx="209.1" cy="245.6" r="15.2"/>
<circle fill="#E52838" cx="183" cy="28.3" r="3.5"/>
<path fill="#E52838" d="M222.2,30.4h-27c-0.4,0-0.9-0.4-0.9-0.9V27c0-0.4,0.4-0.9,0.9-0.9h27c0.4,0,0.9,0.4,0.9,0.9v3
	C222.6,30,222.6,30.4,222.2,30.4z"/>
<path fill="#E52838" d="M213.5,20.9h-9.6c-0.4,0-0.9-0.4-0.9-0.9v-0.4c0-0.4,0.4-0.9,0.9-0.9h9.6c0.4,0,0.9,0.4,0.9,0.9V20
	C213.9,20.4,213.5,20.9,213.5,20.9z"/>
</svg>
