<?xml version="1.0" encoding="utf-8"?>
<!-- Generator: Adobe Illustrator 18.1.1, SVG Export Plug-In . SVG Version: 6.00 Build 0)  -->
<!DOCTYPE svg PUBLIC "-//W3C//DTD SVG 1.1//EN" "http://www.w3.org/Graphics/SVG/1.1/DTD/svg11.dtd">
<svg version="1.1" id="Laag_1" xmlns="http://www.w3.org/2000/svg" xmlns:xlink="http://www.w3.org/1999/xlink" x="0px" y="0px"
	 viewBox="32 18.5 372.6 254.8" enable-background="new 32 18.5 372.6 254.8" xml:space="preserve">
<path fill="#E52838" stroke="#FFFFFF" stroke-width="7" stroke-miterlimit="10" d="M342.6,242.1H93.4c-16.1,0-29.2-13.1-29.2-29.2
	V60.1c0-16.1,13.1-29.2,29.2-29.2h249.2c16.1,0,29.2,13.1,29.2,29.2v152.3C372.3,229,359.2,242.1,342.6,242.1z"/>
<path fill="#FFFFFF" stroke="#FFFFFF" stroke-width="2.107" stroke-miterlimit="10" d="M379.6,261.6H55c-4.4,0-7.8-3.4-7.8-7.8
	v-16.5h342.1v14.6C389.4,257.2,385,261.6,379.6,261.6z"/>
<path fill="#E52838" d="M251.6,256.7h-66.7c-2.4,0-4.4-1.9-4.4-4.4v-1c0-2.4,1.9-4.4,4.4-4.4h66.7c2.4,0,4.4,1.9,4.4,4.4v1
	C256,254.8,254.1,256.7,251.6,256.7z"/>
</svg>
