<?xml version="1.0" encoding="utf-8"?>
<!-- Generator: Adobe Illustrator 18.1.1, SVG Export Plug-In . SVG Version: 6.00 Build 0)  -->
<!DOCTYPE svg PUBLIC "-//W3C//DTD SVG 1.1//EN" "http://www.w3.org/Graphics/SVG/1.1/DTD/svg11.dtd">
<svg version="1.1" id="Laag_1" xmlns="http://www.w3.org/2000/svg" xmlns:xlink="http://www.w3.org/1999/xlink" x="0px" y="0px"
	 viewBox="0 0 532.3 479.1" enable-background="new 0 0 532.3 479.1" xml:space="preserve">
<polygon fill="#010202" points="219.5,93.4 242.9,36 321.7,36 340.8,93.4 "/>
<polygon fill="#010202" points="132.4,175.3 108.3,118.2 164,62.5 218.2,89.6 "/>
<polygon fill="#010202" points="128.7,294.9 71.3,271.5 71.3,192.7 128.7,173.6 "/>
<polygon fill="#010202" points="210.6,382 153.5,406.1 97.8,350.4 124.9,296.2 "/>
<polygon fill="#010202" points="330.2,385.7 306.8,443.1 228,443.1 208.9,385.7 "/>
<polygon fill="#010202" points="417.3,303.8 441.4,360.9 385.7,416.6 331.5,389.5 "/>
<polygon fill="#010202" points="421,184.2 478.4,207.6 478.4,286.4 421,305.5 "/>
<polygon fill="#010202" points="339.1,97.1 396.2,73 451.9,128.7 424.8,182.9 "/>
<path fill="#010202" d="M274.9,68.7c-94.4,0-170.9,76.5-170.9,170.9s76.5,170.9,170.9,170.9s170.9-76.5,170.9-170.9
	S369.2,68.7,274.9,68.7z M274.9,296.2c-31.3,0-56.7-25.4-56.7-56.7c0-31.3,25.4-56.7,56.7-56.7c31.3,0,56.7,25.4,56.7,56.7
	C331.5,270.9,306.2,296.2,274.9,296.2z"/>
</svg>
