<?xml version="1.0" encoding="utf-8"?>
<!-- Generator: Adobe Illustrator 18.1.1, SVG Export Plug-In . SVG Version: 6.00 Build 0)  -->
<!DOCTYPE svg PUBLIC "-//W3C//DTD SVG 1.1//EN" "http://www.w3.org/Graphics/SVG/1.1/DTD/svg11.dtd">
<svg version="1.1" id="Laag_1" xmlns="http://www.w3.org/2000/svg" xmlns:xlink="http://www.w3.org/1999/xlink" x="0px" y="0px"
	 viewBox="0 0 68 49.4" enable-background="new 0 0 68 49.4" xml:space="preserve">
<path fill="#FFFFFF" stroke="#000000" stroke-width="2" stroke-miterlimit="10" d="M59.6,44.4H8.4c-3.3,0-6-2.7-6-6V7
	c0-3.3,2.7-6,6-6h51.2c3.3,0,6,2.7,6,6v31.3C65.6,41.7,62.9,44.4,59.6,44.4z"/>
<path stroke="#000000" stroke-width="2.0402" stroke-miterlimit="10" d="M65,48.4H2.6c-0.9,0-1.6-0.7-1.6-1.6v-3.4h65.9v3.1
	C66.9,47.5,66.1,48.4,65,48.4z"/>
<path fill="#FFFFFF" d="M40.8,47.4H27.2c-0.5,0-0.9-0.4-0.9-0.9v-0.2c0-0.5,0.4-0.9,0.9-0.9h13.7c0.5,0,0.9,0.4,0.9,0.9v0.2
	C41.8,47,41.3,47.4,40.8,47.4z"/>
</svg>
