<?xml version="1.0" encoding="utf-8"?>
<!-- Generator: Adobe Illustrator 18.1.1, SVG Export Plug-In . SVG Version: 6.00 Build 0)  -->
<!DOCTYPE svg PUBLIC "-//W3C//DTD SVG 1.1//EN" "http://www.w3.org/Graphics/SVG/1.1/DTD/svg11.dtd">
<svg version="1.1" id="Laag_1" xmlns="http://www.w3.org/2000/svg" xmlns:xlink="http://www.w3.org/1999/xlink" x="0px" y="0px"
	 viewBox="0 0 532.3 479.1" enable-background="new 0 0 532.3 479.1" xml:space="preserve">
<polygon fill="#010202" points="204.6,75.1 230.9,10.4 319.5,10.4 341.1,75.1 "/>
<polygon fill="#010202" points="106.5,167.3 79.5,102.9 142.1,40.3 203.1,70.8 "/>
<polygon fill="#010202" points="102.4,301.8 37.8,275.5 37.8,186.9 102.4,165.3 "/>
<polygon fill="#010202" points="194.6,399.9 130.3,426.9 67.6,364.3 98.1,303.3 "/>
<polygon fill="#010202" points="329.1,404 302.8,468.7 214.2,468.7 192.6,404 "/>
<polygon fill="#010202" points="427.2,311.8 454.3,376.2 391.6,438.8 330.7,408.3 "/>
<polygon fill="#010202" points="431.3,177.3 496,203.6 496,292.2 431.3,313.8 "/>
<polygon fill="#010202" points="339.1,79.2 403.5,52.1 466.1,114.8 435.6,175.7 "/>
<path fill="#010202" d="M266.9,47.2c-106.2,0-192.3,86.1-192.3,192.3s86.1,192.3,192.3,192.3s192.3-86.1,192.3-192.3
	S373.1,47.2,266.9,47.2z M266.9,303.3c-35.2,0-63.8-28.6-63.8-63.8c0-35.2,28.6-63.8,63.8-63.8c35.2,0,63.8,28.6,63.8,63.8
	C330.7,274.8,302.1,303.3,266.9,303.3z"/>
</svg>
